# xmcd CD database file
#
# Track frame offsets:
#	150
#	20821
#	50551
#	79715
#	104246
#
# Disc length: 1765 seconds
#
# Revision: 0
# Processed by: cddbd v1.5.2PL0 Copyright (c) Steve Scherf et al.
# Submitted via: CDex 1.70beta2
#
DISCID=4106e305
DTITLE=Haftor Medbøe Group - A Box Of Monkeys
DYEAR=2009
DGENRE=Jazz
TTITLE0=Pneumatic
TTITLE1=Leaving Nothing As We Leave
TTITLE2=Up Spiral Up
TTITLE3=As Time Spins Backwards
TTITLE4=Surfrize
EXTD=YEAR: 2009
EXTT0=
EXTT1=
EXTT2=
EXTT3=
EXTT4=
PLAYORDER=
